<svg width="34" height="41" viewBox="0 0 34 41" fill="none" xmlns="http://www.w3.org/2000/svg">
<path fill-rule="evenodd" clip-rule="evenodd" d="M19.163 5.89244C18.1996 4.91011 18.0214 3.45042 18.6209 2.2915C20.0237 3.73871 21.8447 5.0847 23.9742 6.16301C25.8574 7.11658 27.7665 7.75177 29.5638 8.0756C29.9267 9.16609 29.6675 10.4165 28.7917 11.2754C27.5673 12.4762 25.6013 12.4571 24.4004 11.2327L19.163 5.89244ZM32.0282 14.0762C32.2695 14.3033 32.4212 14.5898 32.4821 14.8916C32.4142 15.255 32.3489 15.6252 32.2861 16.0018C32.2319 16.0901 32.1679 16.1743 32.094 16.2527L29.6125 18.889C29.0297 19.5082 28.0552 19.5377 27.436 18.9548C26.8168 18.372 26.7873 17.3975 27.3701 16.7783L29.8517 14.142C30.4345 13.5228 31.409 13.4933 32.0282 14.0762ZM22.0126 28.6871C21.3965 29.3061 20.3953 29.3084 19.7763 28.6923L17.1204 26.0488C16.5014 25.4327 16.4991 24.4314 17.1152 23.8124C17.7313 23.1935 18.7325 23.1911 19.3515 23.8072L22.0074 26.4508C22.6264 27.0669 22.6287 28.0681 22.0126 28.6871ZM3.4088 21.488C3.4088 21.488 0.0620533 19.1516 2.96677 15.9943C3.82556 15.3881 4.79801 15.7417 5.11374 16.0574C5.87149 16.8657 5.38737 17.7413 5.0506 18.0781C4.79801 18.3307 4.90325 18.6885 4.98745 18.8358C5.49262 19.442 5.53472 20.0988 5.49262 20.3514C5.34107 21.4122 4.50333 21.6353 4.1034 21.6143C3.74979 21.6143 3.49299 21.5301 3.4088 21.488ZM22.9209 21.7406C23.7928 21.7406 24.4996 21.0338 24.4996 20.1619C24.4996 19.2901 23.7928 18.5833 22.9209 18.5833C22.0491 18.5833 21.3423 19.2901 21.3423 20.1619C21.3423 21.0338 22.0491 21.7406 22.9209 21.7406ZM7.40831 29.555C7.72103 29.4873 7.95531 29.2091 7.95531 28.8761C7.95531 28.4925 7.64433 28.1815 7.26071 28.1815C6.9985 28.1815 6.77022 28.3268 6.65199 28.5412C6.90788 28.8716 7.16014 29.2096 7.40831 29.555ZM13.0701 10.1217C13.5235 10.1217 13.891 9.75416 13.891 9.3008C13.891 8.84742 13.5235 8.4799 13.0701 8.4799C12.6168 8.4799 12.2493 8.84742 12.2493 9.3008C12.2493 9.75416 12.6168 10.1217 13.0701 10.1217ZM20.3616 36.1232C20.9318 35.837 22.1193 34.8629 22.3073 33.2559L22.3167 32.8533C22.3145 32.8436 22.3132 32.8259 22.3116 32.8023C22.306 32.7244 22.2959 32.5821 22.2323 32.4485C22.2024 32.3858 22.0273 32.109 21.9295 32.0075L21.9129 31.9923L21.8894 31.9706L21.8894 31.9706C21.7998 31.8874 21.6572 31.755 21.53 31.6883C21.4266 31.6446 21.1887 31.5564 21.0635 31.5534L20.5941 31.5424C20.5211 31.5407 20.337 31.5612 20.1845 31.6568C19.9938 31.7763 19.5795 32.0888 19.4473 32.3832C19.4136 32.4857 19.3455 32.7217 19.3426 32.8456C19.3409 32.9178 19.3178 33.0991 19.2393 33.246C19.1847 33.348 19.0255 33.5509 18.8252 33.5462C18.5853 33.5405 18.0223 33.6079 17.6893 33.9224C17.594 33.9821 17.3694 34.2124 17.2338 34.6554C17.1972 34.8818 17.1783 35.4226 17.3954 35.7748C17.466 35.8797 17.6749 36.1408 17.9456 36.3454C18.1001 36.4317 18.541 36.5887 19.0685 36.5267C19.3302 36.4915 19.9552 36.3615 20.3616 36.1232Z" fill="#99C9EE"/>
<path d="M18.6209 2.2915L18.8085 2.10963L18.5557 1.8488L18.3888 2.17144L18.6209 2.2915ZM19.163 5.89244L18.9765 6.07541L18.9765 6.07541L19.163 5.89244ZM23.9742 6.16301L24.0923 5.92989L24.0923 5.92989L23.9742 6.16301ZM29.5638 8.0756L29.8118 7.9931L29.7628 7.84593L29.6102 7.81843L29.5638 8.0756ZM28.7917 11.2754L28.9747 11.462L28.9747 11.462L28.7917 11.2754ZM24.4004 11.2327L24.587 11.0497L24.587 11.0497L24.4004 11.2327ZM32.4821 14.8916L32.739 14.9396L32.7483 14.8897L32.7382 14.84L32.4821 14.8916ZM32.0282 14.0762L31.8491 14.2664L31.8491 14.2664L32.0282 14.0762ZM32.2861 16.0018L32.5088 16.1385L32.5355 16.095L32.5439 16.0447L32.2861 16.0018ZM32.094 16.2527L31.9038 16.0736L31.9038 16.0736L32.094 16.2527ZM29.6125 18.889L29.8028 19.0681L29.8028 19.0681L29.6125 18.889ZM27.436 18.9548L27.2569 19.1451L27.2569 19.1451L27.436 18.9548ZM27.3701 16.7783L27.5604 16.9574L27.5604 16.9574L27.3701 16.7783ZM29.8517 14.142L29.6614 13.9629L29.6614 13.9629L29.8517 14.142ZM19.7763 28.6923L19.592 28.8775L19.592 28.8775L19.7763 28.6923ZM22.0126 28.6871L21.8274 28.5028L21.8274 28.5028L22.0126 28.6871ZM17.1204 26.0488L16.9361 26.234L16.9361 26.234L17.1204 26.0488ZM17.1152 23.8124L16.93 23.6281L16.93 23.6281L17.1152 23.8124ZM19.3515 23.8072L19.1672 23.9924L19.1672 23.9924L19.3515 23.8072ZM22.0074 26.4508L22.1918 26.2656L22.1918 26.2656L22.0074 26.4508ZM2.96677 15.9943L2.81608 15.7808L2.79333 15.7969L2.77447 15.8174L2.96677 15.9943ZM3.4088 21.488L3.25922 21.7022L3.27487 21.7132L3.29194 21.7217L3.4088 21.488ZM5.11374 16.0574L5.30448 15.8786L5.29852 15.8726L5.11374 16.0574ZM5.0506 18.0781L4.86582 17.8933L4.86582 17.8933L5.0506 18.0781ZM4.98745 18.8358L4.76057 18.9655L4.77198 18.9855L4.78671 19.0031L4.98745 18.8358ZM5.49262 20.3514L5.23479 20.3084L5.23394 20.3144L5.49262 20.3514ZM4.1034 21.6143L4.11716 21.353H4.1034V21.6143ZM7.40831 29.555L7.1961 29.7075L7.2961 29.8466L7.46357 29.8104L7.40831 29.555ZM6.65199 28.5412L6.42314 28.4151L6.34024 28.5655L6.4454 28.7013L6.65199 28.5412ZM22.3073 33.2559L22.5668 33.2862L22.5682 33.2742L22.5685 33.262L22.3073 33.2559ZM20.3616 36.1232L20.2444 35.8896L20.2367 35.8934L20.2294 35.8978L20.3616 36.1232ZM22.3167 32.8533L22.5779 32.8594L22.5787 32.8269L22.5715 32.7952L22.3167 32.8533ZM22.3116 32.8023L22.5722 32.7837L22.5722 32.7837L22.3116 32.8023ZM22.2323 32.4485L21.9963 32.5608L21.9963 32.5608L22.2323 32.4485ZM21.9295 32.0075L22.1176 31.8262L22.112 31.8204L22.1061 31.8149L21.9295 32.0075ZM21.9129 31.9923L21.7353 32.184L21.7364 32.185L21.9129 31.9923ZM21.8894 31.9706L21.7045 32.1555L21.7119 32.1623L21.8894 31.9706ZM21.8894 31.9706L22.0743 31.7857L22.0672 31.7791L21.8894 31.9706ZM21.53 31.6883L21.6513 31.4569L21.6418 31.4519L21.6318 31.4477L21.53 31.6883ZM21.0635 31.5534L21.0574 31.8147L21.0574 31.8147L21.0635 31.5534ZM20.5941 31.5424L20.6003 31.2812L20.6003 31.2812L20.5941 31.5424ZM20.1845 31.6568L20.3232 31.8782L20.3232 31.8782L20.1845 31.6568ZM19.4473 32.3832L19.2089 32.2762L19.2034 32.2886L19.1991 32.3016L19.4473 32.3832ZM19.3426 32.8456L19.0813 32.8395L19.0813 32.8395L19.3426 32.8456ZM19.2393 33.246L19.0089 33.1227L19.0089 33.1227L19.2393 33.246ZM18.8252 33.5462L18.8313 33.2849L18.8313 33.2849L18.8252 33.5462ZM17.6893 33.9224L17.8281 34.1438L17.8499 34.1301L17.8687 34.1124L17.6893 33.9224ZM17.2338 34.6554L16.9839 34.5789L16.9787 34.5961L16.9759 34.6137L17.2338 34.6554ZM17.3954 35.7748L17.1728 35.912L17.1786 35.9206L17.3954 35.7748ZM17.9456 36.3454L17.788 36.5539L17.8025 36.5648L17.8183 36.5736L17.9456 36.3454ZM19.0685 36.5267L19.099 36.7862L19.1033 36.7857L19.0685 36.5267ZM15.5328 16.8783L15.3488 16.6928L15.3488 16.6928L15.5328 16.8783ZM10.0009 18.0472L9.81566 17.8629L9.81566 17.8629L10.0009 18.0472ZM19.6792 17.1356L19.8645 17.3199L19.8645 17.3199L19.6792 17.1356ZM14.4091 22.4328L14.2238 22.2485L14.2238 22.2485L14.4091 22.4328ZM10.0122 22.4441L9.8279 22.6294L9.8279 22.6294L10.0122 22.4441ZM19.6679 12.7387L19.4836 12.9239L19.4836 12.9239L19.6679 12.7387ZM24.7959 7.20945L24.6107 7.39372L24.6107 7.39372L24.7959 7.20945ZM24.9247 10.928L24.7123 10.7758L24.7111 10.7774L24.9247 10.928ZM9.21824 7.28012L9.07329 7.0627L9.05176 7.07705L9.03346 7.09535L9.21824 7.28012ZM6.12408 8.73248L5.89036 8.61562L5.89036 8.61562L6.12408 8.73248ZM5.7452 10.5006L5.98641 10.6011L5.99161 10.5886L5.99549 10.5757L5.7452 10.5006ZM4.29284 12.0161L4.14789 11.7987L4.14789 11.7987L4.29284 12.0161ZM1.57756 12.0161L1.4607 12.2498L1.47042 12.2547L1.48051 12.2587L1.57756 12.0161ZM2.94042 9.32605V9.58736H3.16642L3.199 9.36372L2.94042 9.32605ZM9.07473 31.1988L8.86829 31.0385L8.86566 31.042L9.07473 31.1988ZM10.8955 29.8695L10.8592 29.6108L10.8412 29.6133L10.8237 29.6183L10.8955 29.8695ZM12.4747 29.8964L12.5346 29.6418L12.5245 29.6399L12.4747 29.8964ZM14.2954 31.2437L14.525 31.1189L14.5165 31.1033L14.506 31.089L14.2954 31.2437ZM14.7067 32.918L14.4513 32.8626L14.4458 32.8879L14.4454 32.9137L14.7067 32.918ZM13.6624 35.0503L13.4808 34.8624L13.4808 34.8624L13.6624 35.0503ZM13.5143 36.0569L13.265 36.1355L13.265 36.1355L13.5143 36.0569ZM13.9414 36.7663L13.7535 36.9479L13.7535 36.9479L13.9414 36.7663ZM14.4548 37.5648L14.698 37.4693L14.6931 37.4567L14.6869 37.4447L14.4548 37.5648ZM18.3888 2.17144C17.739 3.42762 17.9317 5.01013 18.9765 6.07541L19.3496 5.70947C18.4675 4.81009 18.3038 3.47322 18.853 2.41156L18.3888 2.17144ZM24.0923 5.92989C21.9867 4.86369 20.1897 3.53449 18.8085 2.10963L18.4333 2.47338C19.8577 3.94292 21.7027 5.30571 23.8562 6.39614L24.0923 5.92989ZM29.6102 7.81843C27.8391 7.49934 25.9541 6.87266 24.0923 5.92989L23.8562 6.39614C25.7607 7.36051 27.6938 8.00419 29.5175 8.33277L29.6102 7.81843ZM28.9747 11.462C29.9245 10.5305 30.2049 9.17469 29.8118 7.9931L29.3159 8.1581C29.6484 9.15748 29.4106 10.3025 28.6088 11.0888L28.9747 11.462ZM24.2139 11.4157C25.5158 12.7431 27.6473 12.7638 28.9747 11.462L28.6088 11.0888C27.4874 12.1886 25.6868 12.1711 24.587 11.0497L24.2139 11.4157ZM18.9765 6.07541L24.2139 11.4157L24.587 11.0497L19.3496 5.70947L18.9765 6.07541ZM32.7382 14.84C32.667 14.4868 32.4893 14.1513 32.2073 13.8859L31.8491 14.2664C32.0497 14.4552 32.1754 14.6928 32.2259 14.9433L32.7382 14.84ZM32.5439 16.0447C32.6064 15.6698 32.6714 15.3013 32.739 14.9396L32.2252 14.8437C32.157 15.2088 32.0914 15.5806 32.0284 15.9588L32.5439 16.0447ZM32.2843 16.4318C32.3705 16.3403 32.4453 16.2419 32.5088 16.1385L32.0634 15.8651C32.0185 15.9383 31.9653 16.0082 31.9038 16.0736L32.2843 16.4318ZM29.8028 19.0681L32.2843 16.4318L31.9038 16.0736L29.4222 18.7099L29.8028 19.0681ZM27.2569 19.1451C27.9812 19.8269 29.121 19.7924 29.8028 19.0681L29.4222 18.7099C28.9383 19.224 28.1292 19.2485 27.6151 18.7646L27.2569 19.1451ZM27.1799 16.5992C26.4981 17.3235 26.5326 18.4633 27.2569 19.1451L27.6151 18.7646C27.1009 18.2806 27.0765 17.4715 27.5604 16.9574L27.1799 16.5992ZM29.6614 13.9629L27.1799 16.5992L27.5604 16.9574L30.0419 14.3211L29.6614 13.9629ZM32.2073 13.8859C31.483 13.2041 30.3432 13.2386 29.6614 13.9629L30.0419 14.3211C30.5259 13.807 31.335 13.7825 31.8491 14.2664L32.2073 13.8859ZM19.592 28.8775C20.3132 29.5954 21.4799 29.5927 22.1978 28.8714L21.8274 28.5028C21.3131 29.0195 20.4773 29.0214 19.9607 28.5071L19.592 28.8775ZM16.9361 26.234L19.592 28.8775L19.9607 28.5071L17.3048 25.8636L16.9361 26.234ZM16.93 23.6281C16.2121 24.3494 16.2148 25.516 16.9361 26.234L17.3048 25.8636C16.7881 25.3493 16.7861 24.5135 17.3004 23.9968L16.93 23.6281ZM19.5359 23.622C18.8146 22.9041 17.6479 22.9068 16.93 23.6281L17.3004 23.9968C17.8147 23.4801 18.6505 23.4781 19.1672 23.9924L19.5359 23.622ZM22.1918 26.2656L19.5359 23.622L19.1672 23.9924L21.8231 26.636L22.1918 26.2656ZM22.1978 28.8714C22.9157 28.1502 22.913 26.9835 22.1918 26.2656L21.8231 26.636C22.3398 27.1503 22.3417 27.9861 21.8274 28.5028L22.1978 28.8714ZM2.77447 15.8174C2.01984 16.6376 1.65531 17.4226 1.55173 18.1477C1.44819 18.8725 1.60883 19.5131 1.8633 20.0389C2.11677 20.5628 2.465 20.9769 2.74648 21.2584C2.88781 21.3997 3.0139 21.5092 3.10545 21.5839C3.15127 21.6213 3.18857 21.6501 3.21497 21.6699C3.22817 21.6798 3.23865 21.6875 3.24612 21.6929C3.24986 21.6956 3.25284 21.6977 3.25504 21.6993C3.25614 21.7001 3.25704 21.7007 3.25774 21.7012C3.25808 21.7014 3.25838 21.7017 3.25863 21.7018C3.25876 21.7019 3.2589 21.702 3.25896 21.7021C3.2591 21.7022 3.25922 21.7022 3.4088 21.488C3.55838 21.2737 3.55848 21.2738 3.55856 21.2738C3.55857 21.2738 3.55864 21.2739 3.55866 21.2739C3.55871 21.2739 3.5587 21.2739 3.55865 21.2739C3.55854 21.2738 3.55823 21.2736 3.55773 21.2733C3.55673 21.2725 3.55496 21.2713 3.55245 21.2695C3.54744 21.2658 3.53949 21.26 3.52888 21.2521C3.50767 21.2361 3.4759 21.2116 3.43589 21.179C3.35576 21.1136 3.24307 21.0159 3.11603 20.8888C2.86077 20.6336 2.55386 20.2662 2.33374 19.8113C2.1146 19.3584 1.9832 18.8229 2.06909 18.2216C2.15495 17.6206 2.46135 16.9296 3.15908 16.1712L2.77447 15.8174ZM5.29852 15.8726C5.09252 15.6667 4.71367 15.4793 4.2785 15.4211C3.83356 15.3617 3.3072 15.4341 2.81608 15.7808L3.11747 16.2078C3.48513 15.9482 3.87439 15.8944 4.2093 15.9391C4.55399 15.9852 4.81923 16.1325 4.92897 16.2422L5.29852 15.8726ZM5.23537 18.2629C5.43235 18.0659 5.66919 17.7175 5.74938 17.2931C5.8324 16.8537 5.74345 16.347 5.30438 15.8787L4.92311 16.2361C5.24179 16.5761 5.28965 16.9113 5.23585 17.196C5.17923 17.4957 5.00562 17.7535 4.86582 17.8933L5.23537 18.2629ZM5.21433 18.7062C5.18988 18.6634 5.1573 18.5778 5.15385 18.4866C5.15065 18.4018 5.17202 18.3262 5.23537 18.2629L4.86582 17.8933C4.67659 18.0826 4.62428 18.3122 4.63161 18.5063C4.63869 18.694 4.70083 18.8609 4.76057 18.9655L5.21433 18.7062ZM5.75037 20.3943C5.80382 20.0736 5.74639 19.3384 5.18819 18.6686L4.78671 19.0031C5.23884 19.5457 5.26561 20.1239 5.23486 20.3084L5.75037 20.3943ZM4.08967 21.8752C4.33783 21.8883 4.7047 21.8271 5.03619 21.6059C5.3775 21.3781 5.66521 20.9909 5.7513 20.3883L5.23394 20.3144C5.16847 20.7726 4.96154 21.0274 4.74611 21.1712C4.52087 21.3215 4.2689 21.3613 4.11714 21.3533L4.08967 21.8752ZM3.29194 21.7217C3.41679 21.7841 3.71441 21.8756 4.1034 21.8756V21.353C3.78516 21.353 3.56919 21.276 3.52566 21.2543L3.29194 21.7217ZM24.2383 20.1619C24.2383 20.8895 23.6485 21.4793 22.9209 21.4793V22.0019C23.9371 22.0019 24.7609 21.1781 24.7609 20.1619H24.2383ZM22.9209 18.8446C23.6485 18.8446 24.2383 19.4344 24.2383 20.1619H24.7609C24.7609 19.1457 23.9371 18.322 22.9209 18.322V18.8446ZM21.6036 20.1619C21.6036 19.4344 22.1934 18.8446 22.9209 18.8446V18.322C21.9048 18.322 21.081 19.1457 21.081 20.1619H21.6036ZM22.9209 21.4793C22.1934 21.4793 21.6036 20.8895 21.6036 20.1619H21.081C21.081 21.1781 21.9048 22.0019 22.9209 22.0019V21.4793ZM7.694 28.8761C7.694 29.0835 7.54804 29.2574 7.35304 29.2996L7.46357 29.8104C7.89401 29.7172 8.21662 29.3346 8.21662 28.8761H7.694ZM7.26071 28.4428C7.50001 28.4428 7.694 28.6368 7.694 28.8761H8.21662C8.21662 28.3481 7.78865 27.9202 7.26071 27.9202V28.4428ZM6.88083 28.6674C6.95495 28.5329 7.09749 28.4428 7.26071 28.4428V27.9202C6.8995 27.9202 6.58548 28.1206 6.42314 28.4151L6.88083 28.6674ZM7.62051 29.4025C7.37053 29.0546 7.11639 28.7141 6.85858 28.3812L6.4454 28.7013C6.69937 29.0292 6.94976 29.3646 7.1961 29.7075L7.62051 29.4025ZM13.6297 9.3008C13.6297 9.60985 13.3792 9.86038 13.0701 9.86038V10.383C13.6678 10.383 14.1524 9.89848 14.1524 9.3008H13.6297ZM13.0701 8.74121C13.3792 8.74121 13.6297 8.99174 13.6297 9.3008H14.1524C14.1524 8.70311 13.6678 8.21859 13.0701 8.21859V8.74121ZM12.5106 9.3008C12.5106 8.99174 12.7611 8.74121 13.0701 8.74121V8.21859C12.4725 8.21859 11.9879 8.70311 11.9879 9.3008H12.5106ZM13.0701 9.86038C12.7611 9.86038 12.5106 9.60985 12.5106 9.3008H11.9879C11.9879 9.89848 12.4725 10.383 13.0701 10.383V9.86038ZM22.0477 33.2255C21.8732 34.7183 20.7636 35.629 20.2444 35.8896L20.4788 36.3567C21.1001 36.0449 22.3655 35.0074 22.5668 33.2862L22.0477 33.2255ZM22.0555 32.8472L22.046 33.2498L22.5685 33.262L22.5779 32.8594L22.0555 32.8472ZM22.0509 32.8208C22.0517 32.832 22.054 32.8767 22.0619 32.9113L22.5715 32.7952C22.5725 32.7996 22.5731 32.8031 22.5735 32.8053C22.5739 32.8075 22.5741 32.8091 22.5742 32.8098C22.5744 32.8111 22.5743 32.811 22.5741 32.8088C22.5739 32.8066 22.5737 32.8035 22.5733 32.7991C22.573 32.7947 22.5726 32.7898 22.5722 32.7837L22.0509 32.8208ZM21.9963 32.5608C22.0364 32.6449 22.0453 32.7416 22.0509 32.8209L22.5722 32.7837C22.5668 32.7073 22.5554 32.5192 22.4682 32.3361L21.9963 32.5608ZM21.7414 32.1889C21.7722 32.2208 21.829 32.2974 21.8889 32.3874C21.9169 32.4295 21.9428 32.4702 21.963 32.5033C21.9731 32.5199 21.9814 32.534 21.9876 32.5449C21.9945 32.5571 21.9968 32.5617 21.9963 32.5608L22.4682 32.3361C22.4443 32.2858 22.3832 32.1868 22.3239 32.0977C22.2643 32.0083 22.1847 31.8957 22.1176 31.8262L21.7414 32.1889ZM21.7364 32.185L21.753 32.2002L22.1061 31.8149L22.0895 31.7997L21.7364 32.185ZM21.7119 32.1623L21.7353 32.184L22.0905 31.8007L22.067 31.7789L21.7119 32.1623ZM21.7047 32.1553L21.7047 32.1554L22.0742 31.7858L22.0742 31.7858L21.7047 32.1553ZM21.4086 31.9197C21.4987 31.9669 21.6144 32.0718 21.7117 32.1621L22.0672 31.7791C21.9853 31.703 21.8158 31.5431 21.6513 31.4569L21.4086 31.9197ZM21.0574 31.8147C21.0793 31.8152 21.1387 31.827 21.226 31.8547C21.3052 31.8798 21.3829 31.9098 21.4281 31.9289L21.6318 31.4477C21.5738 31.4231 21.4807 31.3871 21.3838 31.3564C21.295 31.3283 21.1729 31.2946 21.0696 31.2922L21.0574 31.8147ZM20.588 31.8037L21.0574 31.8147L21.0696 31.2922L20.6003 31.2812L20.588 31.8037ZM20.3232 31.8782C20.3678 31.8502 20.4224 31.8303 20.477 31.8179C20.5322 31.8054 20.575 31.8034 20.588 31.8037L20.6003 31.2812C20.4937 31.2787 20.2544 31.3046 20.0457 31.4354L20.3232 31.8782ZM19.6857 32.4902C19.729 32.3939 19.8322 32.2718 19.969 32.1484C20.1006 32.0297 20.2395 31.9307 20.3232 31.8782L20.0457 31.4354C19.9388 31.5024 19.7752 31.6194 19.6189 31.7604C19.4678 31.8967 19.2978 32.0781 19.2089 32.2762L19.6857 32.4902ZM19.6038 32.8517C19.6045 32.821 19.6157 32.7554 19.6371 32.6692C19.6569 32.589 19.6805 32.5107 19.6956 32.4648L19.1991 32.3016C19.1805 32.3582 19.1531 32.4491 19.1297 32.5436C19.1079 32.6319 19.0835 32.7463 19.0813 32.8395L19.6038 32.8517ZM19.4697 33.3692C19.5742 33.1738 19.6016 32.9479 19.6038 32.8517L19.0813 32.8395C19.0809 32.8577 19.077 32.9045 19.0644 32.9623C19.0518 33.0202 19.0331 33.0773 19.0089 33.1227L19.4697 33.3692ZM18.8191 33.8074C19.0109 33.8119 19.1623 33.7175 19.2592 33.6325C19.3578 33.546 19.4298 33.4438 19.4697 33.3692L19.0089 33.1227C18.9941 33.1502 18.9593 33.2004 18.9145 33.2397C18.8681 33.2804 18.8398 33.2851 18.8313 33.2849L18.8191 33.8074ZM17.8687 34.1124C17.9911 33.9968 18.1684 33.9166 18.3582 33.8671C18.5461 33.818 18.7225 33.8051 18.8191 33.8074L18.8313 33.2849C18.688 33.2816 18.463 33.2996 18.2261 33.3614C17.9912 33.4228 17.7205 33.5335 17.5099 33.7324L17.8687 34.1124ZM17.4837 34.7319C17.5433 34.537 17.6211 34.3937 17.6901 34.2959C17.7247 34.2469 17.7568 34.2098 17.7826 34.1838C17.7955 34.1708 17.8064 34.161 17.8147 34.154C17.8189 34.1506 17.8222 34.148 17.8246 34.1462C17.8271 34.1444 17.8282 34.1437 17.8281 34.1438L17.5505 33.701C17.3902 33.8014 17.1335 34.0905 16.9839 34.5789L17.4837 34.7319ZM17.6178 35.6376C17.5397 35.5109 17.496 35.3338 17.4798 35.1456C17.4639 34.9604 17.4767 34.7901 17.4918 34.6971L16.9759 34.6137C16.9543 34.7471 16.9393 34.9605 16.9591 35.1903C16.9786 35.4171 17.034 35.6865 17.173 35.9119L17.6178 35.6376ZM18.1032 36.137C17.8604 35.9534 17.6705 35.7154 17.6123 35.6289L17.1786 35.9206C17.2616 36.044 17.4894 36.3281 17.788 36.5539L18.1032 36.137ZM19.038 36.2672C18.5712 36.3221 18.1851 36.1798 18.073 36.1173L17.8183 36.5736C18.0152 36.6836 18.5109 36.8554 19.099 36.7862L19.038 36.2672ZM20.2294 35.8978C19.8688 36.1093 19.2857 36.2338 19.0337 36.2677L19.1033 36.7857C19.3748 36.7492 20.0417 36.6138 20.4938 36.3485L20.2294 35.8978ZM10.0391 22.372C10.224 22.5567 10.224 22.5567 10.2241 22.5567C10.2241 22.5566 10.2241 22.5566 10.2242 22.5565C10.2244 22.5564 10.2246 22.5561 10.2249 22.5558C10.2255 22.5552 10.2264 22.5543 10.2276 22.5532C10.2299 22.5508 10.2334 22.5473 10.2381 22.5426C10.2474 22.5333 10.2612 22.5195 10.2792 22.5014C10.3153 22.4653 10.3683 22.4123 10.436 22.3446C10.5713 22.2091 10.7652 22.015 10.9998 21.7803C11.469 21.3107 12.1006 20.6786 12.7506 20.0284C14.051 18.7274 15.4238 17.3546 15.7169 17.0638L15.3488 16.6928C15.0547 16.9846 13.6807 18.3586 12.381 19.6589C11.731 20.3092 11.0993 20.9413 10.6301 21.4109C10.3955 21.6456 10.2016 21.8397 10.0663 21.9752C9.9986 22.0429 9.94561 22.0959 9.90953 22.1321C9.89149 22.1501 9.87767 22.1639 9.86837 22.1732C9.86372 22.1779 9.8602 22.1814 9.85784 22.1838C9.85665 22.185 9.85577 22.1859 9.85517 22.1865C9.85487 22.1868 9.85465 22.187 9.8545 22.1871C9.85443 22.1872 9.85437 22.1873 9.85433 22.1873C9.85429 22.1873 9.85428 22.1874 10.0391 22.372ZM15.7169 17.0638C15.9036 16.8786 16.0484 16.6035 16.1528 16.3008C16.2589 15.9934 16.3306 15.6362 16.3581 15.2672C16.4124 14.5389 16.2969 13.7128 15.8706 13.1255L15.4477 13.4325C15.7717 13.8788 15.8866 14.5611 15.8369 15.2284C15.8125 15.5573 15.7487 15.8697 15.6588 16.1303C15.5673 16.3956 15.4557 16.5868 15.3488 16.6928L15.7169 17.0638ZM15.8718 13.1271L15.556 12.6851L15.1308 12.9889L15.4465 13.4309L15.8718 13.1271ZM10.1862 18.2315L15.4563 12.9343L15.0858 12.5657L9.81566 17.8629L10.1862 18.2315ZM19.494 16.9513L14.2238 22.2485L14.5943 22.6171L19.8645 17.3199L19.494 16.9513ZM14.2238 22.2485C13.1146 23.3635 11.3115 23.3681 10.1965 22.2589L9.8279 22.6294C11.1475 23.9422 13.2815 23.9367 14.5943 22.6171L14.2238 22.2485ZM19.4836 12.9239C20.5986 14.0332 20.6032 15.8363 19.494 16.9513L19.8645 17.3199C21.1773 16.0003 21.1718 13.8663 19.8522 12.5534L19.4836 12.9239ZM15.4563 12.9343C16.5655 11.8193 18.3686 11.8147 19.4836 12.9239L19.8522 12.5534C18.5326 11.2406 16.3986 11.2461 15.0858 12.5657L15.4563 12.9343ZM9.81566 17.8629C8.50283 19.1825 8.50831 21.3165 9.8279 22.6294L10.1965 22.2589C9.08152 21.1496 9.07689 19.3465 10.1862 18.2315L9.81566 17.8629ZM15.8698 13.1244L15.4817 12.5954L15.0603 12.9045L15.4484 13.4336L15.8698 13.1244ZM23.3508 6.119C23.9674 6.7437 24.4489 7.2311 24.6107 7.39372L24.9812 7.02517C24.8204 6.86344 24.3397 6.37695 23.7227 5.75187L23.3508 6.119ZM24.6107 7.39372C24.7208 7.50446 24.8352 7.70344 24.9288 7.9784C25.0208 8.24862 25.086 8.57242 25.111 8.9131C25.1618 9.6041 25.0444 10.3121 24.7123 10.7758L25.1371 11.0801C25.5699 10.476 25.6874 9.62564 25.6322 8.87479C25.6043 8.49454 25.5313 8.12654 25.4235 7.80997C25.3173 7.49813 25.1704 7.21534 24.9812 7.02517L24.6107 7.39372ZM24.7111 10.7774L24.3892 11.2341L24.8164 11.5352L25.1383 11.0785L24.7111 10.7774ZM9.60103 6.35424C9.38649 6.78651 9.15715 7.00679 9.07329 7.0627L9.36319 7.49754C9.54429 7.37681 9.82697 7.07456 10.0692 6.58658L9.60103 6.35424ZM9.03346 7.09535C8.74813 7.38067 8.34728 7.56925 7.94428 7.68582C7.54304 7.80187 7.16341 7.83971 6.94498 7.83971V8.36233C7.21067 8.36233 7.6393 8.31807 8.08949 8.18786C8.53791 8.05816 9.03162 7.83628 9.40301 7.46489L9.03346 7.09535ZM6.94498 7.83971C6.65025 7.83971 6.41053 7.99215 6.24455 8.14641C6.07678 8.30233 5.95481 8.48671 5.89036 8.61562L6.3578 8.84934C6.39859 8.76777 6.485 8.63642 6.60033 8.52923C6.71746 8.42038 6.83556 8.36233 6.94498 8.36233V7.83971ZM5.89036 8.61562C5.71437 8.96759 5.67333 9.38238 5.67333 9.55338H6.19595C6.19595 9.4297 6.23068 9.10358 6.3578 8.84934L5.89036 8.61562ZM5.67333 9.55338C5.67333 9.64873 5.64766 9.80861 5.60843 9.98647C5.57053 10.1583 5.52488 10.3256 5.49491 10.4255L5.99549 10.5757C6.02868 10.465 6.07774 10.2851 6.11878 10.099C6.15847 9.91909 6.19595 9.71062 6.19595 9.55338H5.67333ZM5.50399 10.4001C5.39904 10.6519 5.16296 10.9372 4.88585 11.202C4.61374 11.462 4.32591 11.68 4.14789 11.7987L4.43779 12.2335C4.63865 12.0996 4.95071 11.8629 5.24691 11.5799C5.53812 11.3016 5.83878 10.9554 5.98641 10.6011L5.50399 10.4001ZM4.14789 11.7987C3.9003 11.9637 3.58523 12.0074 3.47194 12.0074V12.53C3.65333 12.53 4.07918 12.4726 4.43779 12.2335L4.14789 11.7987ZM3.47194 12.0074H2.52475V12.53H3.47194V12.0074ZM2.52475 12.0074C2.43958 12.0074 2.28729 11.9757 2.1091 11.9232C1.93918 11.8733 1.77335 11.813 1.67461 11.7735L1.48051 12.2587C1.59226 12.3034 1.77373 12.3694 1.96164 12.4246C2.14127 12.4775 2.35734 12.53 2.52475 12.53V12.0074ZM1.69442 11.7824C1.47551 11.6729 1.21303 11.4418 1.02067 11.2697L0.672207 11.6592C0.849971 11.8183 1.1667 12.1028 1.4607 12.2498L1.69442 11.7824ZM0.403503 9.58736H2.94042V9.06474H0.403503V9.58736ZM3.199 9.36372C3.23153 9.14036 3.26739 8.93024 3.3069 8.7324L2.7944 8.63006C2.75288 8.83795 2.71552 9.05716 2.68184 9.28839L3.199 9.36372ZM25.1676 32.2183C25.3876 31.5565 25.7027 31.2001 25.8401 31.0911L25.5152 30.6817C25.2855 30.864 24.9182 31.3119 24.6717 32.0534L25.1676 32.2183ZM9.0046 31.7596C9.11269 31.5927 9.20998 31.454 9.2838 31.3555L8.86566 31.042C8.78365 31.1514 8.67953 31.3001 8.56592 31.4755L9.0046 31.7596ZM9.28114 31.359C9.88876 30.5763 10.6764 30.204 10.9674 30.1208L10.8237 29.6183C10.4387 29.7284 9.5517 30.1583 8.86832 31.0385L9.28114 31.359ZM10.9319 30.1283C11.5657 30.0392 12.1987 30.109 12.4249 30.1529L12.5245 29.6399C12.2549 29.5876 11.5624 29.512 10.8592 29.6108L10.9319 30.1283ZM12.4148 30.1508C12.7609 30.2322 13.1115 30.4483 13.4175 30.703C13.7212 30.9557 13.9608 31.2295 14.0847 31.3983L14.506 31.089C14.3581 30.8876 14.0896 30.5824 13.7519 30.3013C13.4165 30.0222 12.9927 29.7498 12.5345 29.642L12.4148 30.1508ZM14.0658 31.3685C14.4864 32.1422 14.4825 32.7191 14.4513 32.8626L14.962 32.9735C15.0258 32.6798 14.9903 31.9749 14.525 31.1189L14.0658 31.3685ZM14.4454 32.9137C14.4389 33.3091 14.2851 33.7152 14.0804 34.0724C13.8766 34.428 13.6347 34.7136 13.4808 34.8624L13.8441 35.2381C14.032 35.0564 14.3047 34.7321 14.5338 34.3323C14.762 33.934 14.9594 33.4394 14.9679 32.9223L14.4454 32.9137ZM13.4808 34.8624C13.2715 35.0649 13.2062 35.3376 13.1943 35.5605C13.1824 35.7859 13.2223 36 13.265 36.1355L13.7635 35.9784C13.7367 35.8934 13.7081 35.7421 13.7162 35.5882C13.7245 35.4319 13.7681 35.3116 13.8441 35.2381L13.4808 34.8624ZM13.265 36.1355C13.3815 36.5052 13.6364 36.8268 13.7535 36.9479L14.1292 36.5846C14.045 36.4975 13.8472 36.2439 13.7635 35.9784L13.265 36.1355ZM13.7535 36.9479C13.8183 37.0149 13.9092 37.145 14.003 37.2975C14.0936 37.4446 14.1757 37.5939 14.2227 37.6848L14.6869 37.4447C14.6347 37.3438 14.5463 37.1831 14.4481 37.0235C14.3532 36.8693 14.237 36.696 14.1292 36.5846L13.7535 36.9479ZM14.2116 37.6603C14.3034 37.8942 14.3342 38.2296 14.3248 38.5849L14.8472 38.5987C14.8572 38.2222 14.8287 37.8022 14.698 37.4693L14.2116 37.6603ZM10.7896 34.8688C11.0717 33.7523 12.0097 32.5033 13.8855 30.7857L13.5326 30.4003C11.6505 32.1235 10.6059 33.4625 10.2829 34.7407L10.7896 34.8688Z" fill="white"/>
<path d="M16.3427 1.96753L11.8876 5.3377C10.0783 6.70636 7.98097 7.64478 5.75481 8.08169L5.14367 8.20163L1.26135 8.50027L1.39253 12.9977C1.4788 15.9555 2.0079 18.8837 2.96222 21.6846V21.6846C3.91345 24.4766 5.27645 27.1107 7.00609 29.4999L7.48958 30.1677C8.88354 32.0932 10.4695 33.8721 12.223 35.477L16.1933 39.1108" stroke="white" stroke-width="1.79184"/>
<path d="M17.2386 1.96753L21.6937 5.3377C23.5029 6.70636 25.6003 7.64478 27.8264 8.08169L28.4376 8.20163L32.3199 8.50027L32.1887 12.9977C32.1024 15.9555 31.5733 18.8837 30.619 21.6846V21.6846C29.6678 24.4766 28.3048 27.1107 26.5751 29.4999L26.0917 30.1677C24.6977 32.0932 23.1117 33.8721 21.3582 35.477L17.3879 39.1108" stroke="white" stroke-width="1.79184"/>
<rect x="15.4647" y="1.51593" width="1.7934" height="1.7934" transform="rotate(-46.4271 15.4647 1.51593)" fill="white"/>
<line x1="16.9596" y1="40.7136" x2="15.6903" y2="39.5937" stroke="white" stroke-width="0.391965"/>
<line x1="17.918" y1="39.5792" x2="16.6952" y2="40.7063" stroke="white" stroke-width="0.384499"/>
<line x1="16.8279" y1="38.4762" x2="16.8279" y2="40.716" stroke="white" stroke-width="0.0746599"/>
<rect x="15.82" y="38.5508" width="2.01582" height="1.04524" fill="white"/>
<rect x="18.1224" y="39.144" width="2.01582" height="1.04524" transform="rotate(141.419 18.1224 39.144)" fill="white"/>
<rect x="18.3463" y="39.144" width="2.01582" height="1.04524" transform="rotate(141.419 18.3463 39.144)" fill="white"/>
<rect x="17.9946" y="39.1628" width="2.01582" height="1.06988" transform="rotate(160.479 17.9946 39.1628)" fill="white"/>
</svg>
