<svg width="57" height="18" viewBox="0 0 57 18" fill="none" xmlns="http://www.w3.org/2000/svg">
<rect x="23.3208" y="1.00001" width="33.3585" height="16.0377" rx="8.01887" stroke="white" stroke-width="0.641509"/>
<circle cx="32.0189" cy="9.01885" r="6.09434" fill="white" stroke="white" stroke-width="0.641509"/>
<mask id="path-3-outside-1_290_89" maskUnits="userSpaceOnUse" x="0" y="3.01886" width="18" height="13" fill="black">
<rect fill="white" y="3.01886" width="18" height="13"/>
<path d="M1.222 14.0189V4.91886H6.929V6.01086H2.444V8.72136H6.3505V9.76786H2.444V12.9204H6.968V14.0189H1.222ZM9.09309 14.0189V4.91886H10.2371L15.1121 11.8739V4.91886H16.3081V14.0189H15.1641L10.2956 6.98586V14.0189H9.09309Z"/>
</mask>
<path d="M1.222 14.0189H0.222V15.0189H1.222V14.0189ZM1.222 4.91886V3.91886H0.222V4.91886H1.222ZM6.929 4.91886H7.929V3.91886H6.929V4.91886ZM6.929 6.01086V7.01086H7.929V6.01086H6.929ZM2.444 6.01086V5.01086H1.444V6.01086H2.444ZM2.444 8.72136H1.444V9.72136H2.444V8.72136ZM6.3505 8.72136H7.3505V7.72136H6.3505V8.72136ZM6.3505 9.76786V10.7679H7.3505V9.76786H6.3505ZM2.444 9.76786V8.76786H1.444V9.76786H2.444ZM2.444 12.9204H1.444V13.9204H2.444V12.9204ZM6.968 12.9204H7.968V11.9204H6.968V12.9204ZM6.968 14.0189V15.0189H7.968V14.0189H6.968ZM2.222 14.0189V4.91886H0.222V14.0189H2.222ZM1.222 5.91886H6.929V3.91886H1.222V5.91886ZM5.929 4.91886V6.01086H7.929V4.91886H5.929ZM6.929 5.01086H2.444V7.01086H6.929V5.01086ZM1.444 6.01086V8.72136H3.444V6.01086H1.444ZM2.444 9.72136H6.3505V7.72136H2.444V9.72136ZM5.3505 8.72136V9.76786H7.3505V8.72136H5.3505ZM6.3505 8.76786H2.444V10.7679H6.3505V8.76786ZM1.444 9.76786V12.9204H3.444V9.76786H1.444ZM2.444 13.9204H6.968V11.9204H2.444V13.9204ZM5.968 12.9204V14.0189H7.968V12.9204H5.968ZM6.968 13.0189H1.222V15.0189H6.968V13.0189ZM9.09309 14.0189H8.09309V15.0189H9.09309V14.0189ZM9.09309 4.91886V3.91886H8.09309V4.91886H9.09309ZM10.2371 4.91886L11.056 4.34488L10.7574 3.91886H10.2371V4.91886ZM15.1121 11.8739L14.2932 12.4478L16.1121 15.0428V11.8739H15.1121ZM15.1121 4.91886V3.91886H14.1121V4.91886H15.1121ZM16.3081 4.91886H17.3081V3.91886H16.3081V4.91886ZM16.3081 14.0189V15.0189H17.3081V14.0189H16.3081ZM15.1641 14.0189L14.3419 14.588L14.6401 15.0189H15.1641V14.0189ZM10.2956 6.98586L11.1178 6.41669L9.29559 3.78432V6.98586H10.2956ZM10.2956 14.0189V15.0189H11.2956V14.0189H10.2956ZM10.0931 14.0189V4.91886H8.09309V14.0189H10.0931ZM9.09309 5.91886H10.2371V3.91886H9.09309V5.91886ZM9.41822 5.49284L14.2932 12.4478L15.931 11.2999L11.056 4.34488L9.41822 5.49284ZM16.1121 11.8739V4.91886H14.1121V11.8739H16.1121ZM15.1121 5.91886H16.3081V3.91886H15.1121V5.91886ZM15.3081 4.91886V14.0189H17.3081V4.91886H15.3081ZM16.3081 13.0189H15.1641V15.0189H16.3081V13.0189ZM15.9863 13.4497L11.1178 6.41669L9.47337 7.55503L14.3419 14.588L15.9863 13.4497ZM9.29559 6.98586V14.0189H11.2956V6.98586H9.29559ZM10.2956 13.0189H9.09309V15.0189H10.2956V13.0189Z" fill="white" mask="url(#path-3-outside-1_290_89)"/>
</svg>
