<svg width="57" height="17" viewBox="0 0 57 17" fill="none" xmlns="http://www.w3.org/2000/svg">
<rect x="23.3208" y="0.320755" width="33.3585" height="16.0377" rx="8.01887" stroke="white" stroke-width="0.641509"/>
<circle cx="48.0189" cy="8.33959" r="6.09434" fill="white" stroke="white" stroke-width="0.641509"/>
<mask id="path-3-outside-1_290_87" maskUnits="userSpaceOnUse" x="0" y="2.3396" width="18" height="13" fill="black">
<rect fill="white" y="2.3396" width="18" height="13"/>
<path d="M1.222 13.3396V4.2396H4.576C5.19133 4.2396 5.72217 4.34793 6.1685 4.5646C6.61917 4.78127 6.96583 5.0911 7.2085 5.4941C7.4555 5.89277 7.579 6.36293 7.579 6.9046C7.579 7.3596 7.47933 7.7626 7.28 8.1136C7.08067 8.46027 6.799 8.7441 6.435 8.9651C6.071 9.1861 5.64633 9.33343 5.161 9.4071L8.0015 13.3396H6.5065L3.8285 9.5631H2.444V13.3396H1.222ZM2.444 8.5166H4.342C4.97467 8.5166 5.4665 8.3801 5.8175 8.1071C6.17283 7.8341 6.3505 7.44843 6.3505 6.9501C6.3505 6.43877 6.1945 6.03577 5.8825 5.7411C5.5705 5.44643 5.09817 5.2991 4.4655 5.2991H2.444V8.5166ZM13.2515 13.5346C12.4498 13.5346 11.7825 13.3721 11.2495 13.0471C10.7165 12.7178 10.3156 12.2758 10.047 11.7211C9.7783 11.1621 9.64397 10.5403 9.64397 9.8556V4.2396H10.866V9.8101C10.866 10.6724 11.0805 11.3159 11.5095 11.7406C11.9428 12.1609 12.5235 12.3711 13.2515 12.3711C13.9751 12.3711 14.5515 12.1609 14.9805 11.7406C15.4138 11.3159 15.6305 10.6724 15.6305 9.8101V4.2396H16.8525V9.8556C16.8525 10.5403 16.7181 11.1599 16.4495 11.7146C16.1808 12.2693 15.78 12.7113 15.247 13.0406C14.714 13.3699 14.0488 13.5346 13.2515 13.5346Z"/>
</mask>
<path d="M1.222 13.3396H0.222V14.3396H1.222V13.3396ZM1.222 4.2396V3.2396H0.222V4.2396H1.222ZM6.1685 4.5646L5.73179 5.46421L5.73521 5.46585L6.1685 4.5646ZM7.2085 5.4941L6.35175 6.00999L6.35843 6.02077L7.2085 5.4941ZM7.28 8.1136L8.14692 8.61208L8.14956 8.60742L7.28 8.1136ZM6.435 8.9651L6.95398 9.81989H6.95398L6.435 8.9651ZM5.161 9.4071L5.01093 8.41842L3.39089 8.66432L4.35036 9.99264L5.161 9.4071ZM8.0015 13.3396V14.3396H9.9574L8.81214 12.7541L8.0015 13.3396ZM6.5065 13.3396L5.69078 13.918L5.98971 14.3396H6.5065V13.3396ZM3.8285 9.5631L4.64422 8.98465L4.34529 8.5631H3.8285V9.5631ZM2.444 9.5631V8.5631H1.444V9.5631H2.444ZM2.444 13.3396V14.3396H3.444V13.3396H2.444ZM2.444 8.5166H1.444V9.5166H2.444V8.5166ZM5.8175 8.1071L5.20825 7.3141L5.20356 7.31775L5.8175 8.1071ZM5.8825 5.7411L5.19588 6.46811L5.19588 6.46811L5.8825 5.7411ZM2.444 5.2991V4.2991H1.444V5.2991H2.444ZM2.222 13.3396V4.2396H0.222V13.3396H2.222ZM1.222 5.2396H4.576V3.2396H1.222V5.2396ZM4.576 5.2396C5.07557 5.2396 5.45027 5.32754 5.7318 5.46421L6.6052 3.66499C5.99406 3.36832 5.3071 3.2396 4.576 3.2396V5.2396ZM5.73521 5.46585C6.02181 5.60364 6.21615 5.78464 6.35182 6.00995L8.06518 4.97825C7.71552 4.39756 7.21652 3.95889 6.60179 3.66335L5.73521 5.46585ZM6.35843 6.02077C6.49302 6.238 6.579 6.51962 6.579 6.9046H8.579C8.579 6.20624 8.41798 5.54754 8.05857 4.96743L6.35843 6.02077ZM6.579 6.9046C6.579 7.20891 6.51384 7.43769 6.41044 7.61977L8.14956 8.60742C8.44482 8.08751 8.579 7.51029 8.579 6.9046H6.579ZM6.41309 7.61513C6.30329 7.80609 6.14551 7.97098 5.91602 8.11031L6.95398 9.81989C7.45249 9.51722 7.85804 9.11444 8.14691 8.61207L6.41309 7.61513ZM5.91602 8.11031C5.68086 8.25309 5.38543 8.36158 5.01093 8.41842L5.31107 10.3958C5.90724 10.3053 6.46114 10.1191 6.95398 9.81989L5.91602 8.11031ZM4.35036 9.99264L7.19086 13.9251L8.81214 12.7541L5.97164 8.82156L4.35036 9.99264ZM8.0015 12.3396H6.5065V14.3396H8.0015V12.3396ZM7.32222 12.7612L4.64422 8.98465L3.01278 10.1415L5.69078 13.918L7.32222 12.7612ZM3.8285 8.5631H2.444V10.5631H3.8285V8.5631ZM1.444 9.5631V13.3396H3.444V9.5631H1.444ZM2.444 12.3396H1.222V14.3396H2.444V12.3396ZM2.444 9.5166H4.342V7.5166H2.444V9.5166ZM4.342 9.5166C5.10545 9.5166 5.8442 9.35319 6.43144 8.89645L5.20356 7.31775C5.0888 7.40701 4.84388 7.5166 4.342 7.5166V9.5166ZM6.42674 8.90008C7.05844 8.41475 7.3505 7.71921 7.3505 6.9501H5.3505C5.3505 7.17765 5.28723 7.25344 5.20826 7.31412L6.42674 8.90008ZM7.3505 6.9501C7.3505 6.22067 7.11914 5.53355 6.56912 5.01409L5.19588 6.46811C5.26986 6.53799 5.3505 6.65686 5.3505 6.9501H7.3505ZM6.56912 5.01409C5.99982 4.47641 5.23405 4.2991 4.4655 4.2991V6.2991C4.96229 6.2991 5.14118 6.41646 5.19588 6.46811L6.56912 5.01409ZM4.4655 4.2991H2.444V6.2991H4.4655V4.2991ZM1.444 5.2991V8.5166H3.444V5.2991H1.444ZM11.2495 13.0471L10.7238 13.8978L10.7289 13.9009L11.2495 13.0471ZM10.047 11.7211L9.14566 12.1543L9.14699 12.157L10.047 11.7211ZM9.64397 4.2396V3.2396H8.64397V4.2396H9.64397ZM10.866 4.2396H11.866V3.2396H10.866V4.2396ZM11.5095 11.7406L10.8059 12.4513L10.8132 12.4584L11.5095 11.7406ZM14.9805 11.7406L15.6803 12.4549L15.6804 12.4548L14.9805 11.7406ZM15.6305 4.2396V3.2396H14.6305V4.2396H15.6305ZM16.8525 4.2396H17.8525V3.2396H16.8525V4.2396ZM16.4495 11.7146L17.3495 12.1505L16.4495 11.7146ZM15.247 13.0406L14.7213 12.1899L15.247 13.0406ZM13.2515 12.5346C12.5821 12.5346 12.1075 12.3991 11.7701 12.1933L10.7289 13.9009C11.4574 14.3451 12.3175 14.5346 13.2515 14.5346V12.5346ZM11.7751 12.1964C11.4009 11.9652 11.1313 11.6658 10.9469 11.2852L9.14699 12.157C9.49993 12.8857 10.032 13.4703 10.7238 13.8978L11.7751 12.1964ZM10.9483 11.2879C10.7511 10.8776 10.644 10.4061 10.644 9.8556H8.64397C8.64397 10.6745 8.80553 11.4466 9.14566 12.1543L10.9483 11.2879ZM10.644 9.8556V4.2396H8.64397V9.8556H10.644ZM9.64397 5.2396H10.866V3.2396H9.64397V5.2396ZM9.86597 4.2396V9.8101H11.866V4.2396H9.86597ZM9.86597 9.8101C9.86597 10.824 10.1185 11.7708 10.806 12.4513L12.213 11.0299C12.0425 10.8611 11.866 10.5209 11.866 9.8101H9.86597ZM10.8132 12.4584C11.4703 13.0958 12.3205 13.3711 13.2515 13.3711V11.3711C12.7265 11.3711 12.4153 11.2261 12.2057 11.0228L10.8132 12.4584ZM13.2515 13.3711C14.1797 13.3711 15.0272 13.0948 15.6803 12.4549L14.2806 11.0263C14.0757 11.2271 13.7706 11.3711 13.2515 11.3711V13.3711ZM15.6804 12.4548C16.3744 11.7747 16.6305 10.8266 16.6305 9.8101H14.6305C14.6305 10.5183 14.4532 10.8572 14.2805 11.0264L15.6804 12.4548ZM16.6305 9.8101V4.2396H14.6305V9.8101H16.6305ZM15.6305 5.2396H16.8525V3.2396H15.6305V5.2396ZM15.8525 4.2396V9.8556H17.8525V4.2396H15.8525ZM15.8525 9.8556C15.8525 10.4062 15.7453 10.8743 15.5495 11.2787L17.3495 12.1505C17.6909 11.4455 17.8525 10.6743 17.8525 9.8556H15.8525ZM15.5495 11.2787C15.3651 11.6593 15.0955 11.9587 14.7213 12.1899L15.7726 13.8913C16.4644 13.4638 16.9965 12.8792 17.3495 12.1505L15.5495 11.2787ZM14.7213 12.1899C14.384 12.3983 13.9132 12.5346 13.2515 12.5346V14.5346C14.1845 14.5346 15.0439 14.3416 15.7726 13.8913L14.7213 12.1899Z" fill="white" mask="url(#path-3-outside-1_290_87)"/>
</svg>
