<svg width="37" height="37" viewBox="0 0 37 37" fill="none" xmlns="http://www.w3.org/2000/svg">
<path d="M13.6667 6.02772H12.0556C8.25817 6.02772 6.35867 6.02772 5.17933 7.20705C4 8.38639 4 10.2859 4 14.0833V22.1388C4 25.9362 4 27.8341 5.17933 29.0151C6.35867 30.196 8.25817 30.1944 12.0556 30.1944H13.6667M13.6667 9.21127C13.6667 5.517 13.6667 3.66905 14.8057 2.65889C15.9448 1.64872 17.6864 1.95161 21.1696 2.559L24.9235 3.21472C28.7805 3.88655 30.709 4.22327 31.8545 5.63783C33 7.054 33 9.10011 33 13.1939V23.0298C33 27.122 33 29.1681 31.8561 30.5843C30.709 31.9988 28.7789 32.3356 24.9219 33.009L21.1712 33.6631C17.688 34.2705 15.9464 34.5734 14.8073 33.5632C13.6683 32.5531 13.6667 30.7051 13.6667 27.0108V9.21127Z" stroke="white" stroke-width="1.04505"/>
<path d="M18.5 16.4999V19.7222" stroke="white" stroke-width="2.41667" stroke-linecap="round"/>
</svg>
