<svg width="33" height="38" viewBox="0 0 33 38" fill="none" xmlns="http://www.w3.org/2000/svg">
<path fill-rule="evenodd" clip-rule="evenodd" d="M19.163 4.89244C18.1996 3.91011 18.0214 2.45042 18.6209 1.2915C20.0237 2.73871 21.8447 4.0847 23.9742 5.16301C25.8574 6.11658 27.7665 6.75177 29.5638 7.0756C29.9267 8.16609 29.6675 9.41648 28.7917 10.2754C27.5673 11.4762 25.6013 11.4571 24.4004 10.2327L19.163 4.89244ZM32.0282 13.0762C32.2695 13.3033 32.4212 13.5898 32.4821 13.8916C32.4142 14.255 32.3489 14.6252 32.2861 15.0018C32.2319 15.0901 32.1679 15.1743 32.094 15.2527L29.6125 17.889C29.0297 18.5082 28.0552 18.5377 27.436 17.9548C26.8168 17.372 26.7873 16.3975 27.3701 15.7783L29.8517 13.142C30.4345 12.5228 31.409 12.4933 32.0282 13.0762ZM22.0126 27.6871C21.3965 28.3061 20.3953 28.3084 19.7763 27.6923L17.1204 25.0488C16.5014 24.4327 16.4991 23.4314 17.1152 22.8124C17.7313 22.1935 18.7325 22.1911 19.3515 22.8072L22.0074 25.4508C22.6264 26.0669 22.6287 27.0681 22.0126 27.6871ZM3.4088 20.488C3.4088 20.488 0.0620533 18.1516 2.96677 14.9943C3.82556 14.3881 4.79801 14.7417 5.11374 15.0574C5.87149 15.8657 5.38737 16.7413 5.0506 17.0781C4.79801 17.3307 4.90325 17.6885 4.98745 17.8358C5.49262 18.442 5.53472 19.0988 5.49262 19.3514C5.34107 20.4122 4.50333 20.6353 4.1034 20.6143C3.74979 20.6143 3.49299 20.5301 3.4088 20.488ZM22.9209 20.7406C23.7928 20.7406 24.4996 20.0338 24.4996 19.1619C24.4996 18.2901 23.7928 17.5833 22.9209 17.5833C22.0491 17.5833 21.3423 18.2901 21.3423 19.1619C21.3423 20.0338 22.0491 20.7406 22.9209 20.7406ZM7.40831 28.555C7.72103 28.4873 7.95531 28.2091 7.95531 27.8761C7.95531 27.4925 7.64433 27.1815 7.26071 27.1815C6.9985 27.1815 6.77022 27.3268 6.65199 27.5412C6.90788 27.8716 7.16014 28.2096 7.40831 28.555ZM13.0701 9.12169C13.5235 9.12169 13.891 8.75416 13.891 8.3008C13.891 7.84742 13.5235 7.4799 13.0701 7.4799C12.6168 7.4799 12.2493 7.84742 12.2493 8.3008C12.2493 8.75416 12.6168 9.12169 13.0701 9.12169ZM20.3616 35.1232C20.9318 34.837 22.1193 33.8629 22.3073 32.2559L22.3167 31.8533C22.3145 31.8436 22.3132 31.8259 22.3116 31.8023C22.306 31.7244 22.2959 31.5821 22.2323 31.4485C22.2024 31.3858 22.0273 31.109 21.9295 31.0075L21.9129 30.9923L21.8894 30.9706L21.8894 30.9706C21.7998 30.8874 21.6572 30.755 21.53 30.6883C21.4266 30.6446 21.1887 30.5564 21.0635 30.5534L20.5941 30.5424C20.5211 30.5407 20.337 30.5612 20.1845 30.6568C19.9938 30.7763 19.5795 31.0888 19.4473 31.3832C19.4136 31.4857 19.3455 31.7217 19.3426 31.8456C19.3409 31.9178 19.3178 32.0991 19.2393 32.246C19.1847 32.348 19.0255 32.5509 18.8252 32.5462C18.5853 32.5405 18.0223 32.6079 17.6893 32.9224C17.594 32.9821 17.3694 33.2124 17.2338 33.6554C17.1972 33.8818 17.1783 34.4226 17.3954 34.7748C17.466 34.8797 17.6749 35.1408 17.9456 35.3454C18.1001 35.4317 18.541 35.5887 19.0685 35.5267C19.3302 35.4915 19.9552 35.3615 20.3616 35.1232Z" fill="#99C9EE"/>
<path d="M18.6209 1.2915L18.8085 1.10963L18.5557 0.848801L18.3888 1.17144L18.6209 1.2915ZM19.163 4.89244L18.9765 5.07541L18.9765 5.07541L19.163 4.89244ZM23.9742 5.16301L24.0923 4.92989L24.0923 4.92989L23.9742 5.16301ZM29.5638 7.0756L29.8118 6.9931L29.7628 6.84593L29.6102 6.81843L29.5638 7.0756ZM28.7917 10.2754L28.9747 10.462L28.9747 10.462L28.7917 10.2754ZM24.4004 10.2327L24.587 10.0497L24.587 10.0497L24.4004 10.2327ZM32.4821 13.8916L32.739 13.9396L32.7483 13.8897L32.7382 13.84L32.4821 13.8916ZM32.0282 13.0762L31.8491 13.2664L31.8491 13.2664L32.0282 13.0762ZM32.2861 15.0018L32.5088 15.1385L32.5355 15.095L32.5439 15.0447L32.2861 15.0018ZM32.094 15.2527L31.9038 15.0736L31.9038 15.0736L32.094 15.2527ZM29.6125 17.889L29.8028 18.0681L29.8028 18.0681L29.6125 17.889ZM27.436 17.9548L27.2569 18.1451L27.2569 18.1451L27.436 17.9548ZM27.3701 15.7783L27.5604 15.9574L27.5604 15.9574L27.3701 15.7783ZM29.8517 13.142L29.6614 12.9629L29.6614 12.9629L29.8517 13.142ZM19.7763 27.6923L19.592 27.8775L19.592 27.8775L19.7763 27.6923ZM22.0126 27.6871L21.8274 27.5028L21.8274 27.5028L22.0126 27.6871ZM17.1204 25.0488L16.9361 25.234L16.9361 25.234L17.1204 25.0488ZM17.1152 22.8124L16.93 22.6281L16.93 22.6281L17.1152 22.8124ZM19.3515 22.8072L19.1672 22.9924L19.1672 22.9924L19.3515 22.8072ZM22.0074 25.4508L22.1918 25.2656L22.1918 25.2656L22.0074 25.4508ZM2.96677 14.9943L2.81608 14.7808L2.79333 14.7969L2.77447 14.8174L2.96677 14.9943ZM3.4088 20.488L3.25922 20.7022L3.27487 20.7132L3.29194 20.7217L3.4088 20.488ZM5.11374 15.0574L5.30448 14.8786L5.29852 14.8726L5.11374 15.0574ZM5.0506 17.0781L4.86582 16.8933L4.86582 16.8933L5.0506 17.0781ZM4.98745 17.8358L4.76057 17.9655L4.77198 17.9855L4.78671 18.0031L4.98745 17.8358ZM5.49262 19.3514L5.23479 19.3084L5.23394 19.3144L5.49262 19.3514ZM4.1034 20.6143L4.11716 20.353H4.1034V20.6143ZM7.40831 28.555L7.1961 28.7075L7.2961 28.8466L7.46357 28.8104L7.40831 28.555ZM6.65199 27.5412L6.42314 27.4151L6.34024 27.5655L6.4454 27.7013L6.65199 27.5412ZM22.3073 32.2559L22.5668 32.2862L22.5682 32.2742L22.5685 32.262L22.3073 32.2559ZM20.3616 35.1232L20.2444 34.8896L20.2367 34.8934L20.2294 34.8978L20.3616 35.1232ZM22.3167 31.8533L22.5779 31.8594L22.5787 31.8269L22.5715 31.7952L22.3167 31.8533ZM22.3116 31.8023L22.5722 31.7837L22.5722 31.7837L22.3116 31.8023ZM22.2323 31.4485L21.9963 31.5608L21.9963 31.5608L22.2323 31.4485ZM21.9295 31.0075L22.1176 30.8262L22.112 30.8204L22.1061 30.8149L21.9295 31.0075ZM21.9129 30.9923L21.7353 31.184L21.7364 31.185L21.9129 30.9923ZM21.8894 30.9706L21.7045 31.1555L21.7119 31.1623L21.8894 30.9706ZM21.8894 30.9706L22.0743 30.7857L22.0672 30.7791L21.8894 30.9706ZM21.53 30.6883L21.6513 30.4569L21.6418 30.4519L21.6318 30.4477L21.53 30.6883ZM21.0635 30.5534L21.0574 30.8147L21.0574 30.8147L21.0635 30.5534ZM20.5941 30.5424L20.6003 30.2812L20.6003 30.2812L20.5941 30.5424ZM20.1845 30.6568L20.3232 30.8782L20.3232 30.8782L20.1845 30.6568ZM19.4473 31.3832L19.2089 31.2762L19.2034 31.2886L19.1991 31.3016L19.4473 31.3832ZM19.3426 31.8456L19.0813 31.8395L19.0813 31.8395L19.3426 31.8456ZM19.2393 32.246L19.0089 32.1227L19.0089 32.1227L19.2393 32.246ZM18.8252 32.5462L18.8313 32.2849L18.8313 32.2849L18.8252 32.5462ZM17.6893 32.9224L17.8281 33.1438L17.8499 33.1301L17.8687 33.1124L17.6893 32.9224ZM17.2338 33.6554L16.9839 33.5789L16.9787 33.5961L16.9759 33.6137L17.2338 33.6554ZM17.3954 34.7748L17.1728 34.912L17.1786 34.9206L17.3954 34.7748ZM17.9456 35.3454L17.788 35.5539L17.8025 35.5648L17.8183 35.5736L17.9456 35.3454ZM19.0685 35.5267L19.099 35.7862L19.1033 35.7857L19.0685 35.5267ZM15.5328 15.8783L15.3488 15.6928L15.3488 15.6928L15.5328 15.8783ZM10.0009 17.0472L9.81566 16.8629L9.81566 16.8629L10.0009 17.0472ZM19.6792 16.1356L19.8645 16.3199L19.8645 16.3199L19.6792 16.1356ZM14.4091 21.4328L14.2238 21.2485L14.2238 21.2485L14.4091 21.4328ZM10.0122 21.4441L9.8279 21.6294L9.8279 21.6294L10.0122 21.4441ZM19.6679 11.7387L19.4836 11.9239L19.4836 11.9239L19.6679 11.7387ZM24.7959 6.20945L24.6107 6.39372L24.6107 6.39372L24.7959 6.20945ZM24.9247 9.92795L24.7123 9.77578L24.7111 9.77741L24.9247 9.92795ZM9.21824 6.28012L9.07329 6.0627L9.05176 6.07705L9.03346 6.09535L9.21824 6.28012ZM6.12408 7.73248L5.89036 7.61562L5.89036 7.61562L6.12408 7.73248ZM5.7452 9.50057L5.98641 9.60107L5.99161 9.5886L5.99549 9.57566L5.7452 9.50057ZM4.29284 11.0161L4.14789 10.7987L4.14789 10.7987L4.29284 11.0161ZM1.57756 11.0161L1.4607 11.2498L1.47042 11.2547L1.48051 11.2587L1.57756 11.0161ZM2.94042 8.32605V8.58736H3.16642L3.199 8.36372L2.94042 8.32605ZM9.07473 30.1988L8.86829 30.0385L8.86566 30.042L9.07473 30.1988ZM10.8955 28.8695L10.8592 28.6108L10.8412 28.6133L10.8237 28.6183L10.8955 28.8695ZM12.4747 28.8964L12.5346 28.6418L12.5245 28.6399L12.4747 28.8964ZM14.2954 30.2437L14.525 30.1189L14.5165 30.1033L14.506 30.089L14.2954 30.2437ZM14.7067 31.918L14.4513 31.8626L14.4458 31.8879L14.4454 31.9137L14.7067 31.918ZM13.6624 34.0503L13.4808 33.8624L13.4808 33.8624L13.6624 34.0503ZM13.5143 35.0569L13.265 35.1355L13.265 35.1355L13.5143 35.0569ZM13.9414 35.7663L13.7535 35.9479L13.7535 35.9479L13.9414 35.7663ZM14.4548 36.5648L14.698 36.4693L14.6931 36.4567L14.6869 36.4447L14.4548 36.5648ZM18.3888 1.17144C17.739 2.42762 17.9317 4.01013 18.9765 5.07541L19.3496 4.70947C18.4675 3.81009 18.3038 2.47322 18.853 1.41156L18.3888 1.17144ZM24.0923 4.92989C21.9867 3.86369 20.1897 2.53449 18.8085 1.10963L18.4333 1.47338C19.8577 2.94292 21.7027 4.30571 23.8562 5.39614L24.0923 4.92989ZM29.6102 6.81843C27.8391 6.49934 25.9541 5.87266 24.0923 4.92989L23.8562 5.39614C25.7607 6.36051 27.6938 7.00419 29.5175 7.33277L29.6102 6.81843ZM28.9747 10.462C29.9245 9.53049 30.2049 8.17469 29.8118 6.9931L29.3159 7.1581C29.6484 8.15748 29.4106 9.30247 28.6088 10.0888L28.9747 10.462ZM24.2139 10.4157C25.5158 11.7431 27.6473 11.7638 28.9747 10.462L28.6088 10.0888C27.4874 11.1886 25.6868 11.1711 24.587 10.0497L24.2139 10.4157ZM18.9765 5.07541L24.2139 10.4157L24.587 10.0497L19.3496 4.70947L18.9765 5.07541ZM32.7382 13.84C32.667 13.4868 32.4893 13.1513 32.2073 12.8859L31.8491 13.2664C32.0497 13.4552 32.1754 13.6928 32.2259 13.9433L32.7382 13.84ZM32.5439 15.0447C32.6064 14.6698 32.6714 14.3013 32.739 13.9396L32.2252 13.8437C32.157 14.2088 32.0914 14.5806 32.0284 14.9588L32.5439 15.0447ZM32.2843 15.4318C32.3705 15.3403 32.4453 15.2419 32.5088 15.1385L32.0634 14.8651C32.0185 14.9383 31.9653 15.0082 31.9038 15.0736L32.2843 15.4318ZM29.8028 18.0681L32.2843 15.4318L31.9038 15.0736L29.4222 17.7099L29.8028 18.0681ZM27.2569 18.1451C27.9812 18.8269 29.121 18.7924 29.8028 18.0681L29.4222 17.7099C28.9383 18.224 28.1292 18.2485 27.6151 17.7646L27.2569 18.1451ZM27.1799 15.5992C26.4981 16.3235 26.5326 17.4633 27.2569 18.1451L27.6151 17.7646C27.1009 17.2806 27.0765 16.4715 27.5604 15.9574L27.1799 15.5992ZM29.6614 12.9629L27.1799 15.5992L27.5604 15.9574L30.0419 13.3211L29.6614 12.9629ZM32.2073 12.8859C31.483 12.2041 30.3432 12.2386 29.6614 12.9629L30.0419 13.3211C30.5259 12.807 31.335 12.7825 31.8491 13.2664L32.2073 12.8859ZM19.592 27.8775C20.3132 28.5954 21.4799 28.5927 22.1978 27.8714L21.8274 27.5028C21.3131 28.0195 20.4773 28.0214 19.9607 27.5071L19.592 27.8775ZM16.9361 25.234L19.592 27.8775L19.9607 27.5071L17.3048 24.8636L16.9361 25.234ZM16.93 22.6281C16.2121 23.3494 16.2148 24.516 16.9361 25.234L17.3048 24.8636C16.7881 24.3493 16.7861 23.5135 17.3004 22.9968L16.93 22.6281ZM19.5359 22.622C18.8146 21.9041 17.6479 21.9068 16.93 22.6281L17.3004 22.9968C17.8147 22.4801 18.6505 22.4781 19.1672 22.9924L19.5359 22.622ZM22.1918 25.2656L19.5359 22.622L19.1672 22.9924L21.8231 25.636L22.1918 25.2656ZM22.1978 27.8714C22.9157 27.1502 22.913 25.9835 22.1918 25.2656L21.8231 25.636C22.3398 26.1503 22.3417 26.9861 21.8274 27.5028L22.1978 27.8714ZM2.77447 14.8174C2.01984 15.6376 1.65531 16.4226 1.55173 17.1477C1.44819 17.8725 1.60883 18.5131 1.8633 19.0389C2.11677 19.5628 2.465 19.9769 2.74648 20.2584C2.88781 20.3997 3.0139 20.5092 3.10545 20.5839C3.15127 20.6213 3.18857 20.6501 3.21497 20.6699C3.22817 20.6798 3.23865 20.6875 3.24612 20.6929C3.24986 20.6956 3.25284 20.6977 3.25504 20.6993C3.25614 20.7001 3.25704 20.7007 3.25774 20.7012C3.25808 20.7014 3.25838 20.7017 3.25863 20.7018C3.25876 20.7019 3.2589 20.702 3.25896 20.7021C3.2591 20.7022 3.25922 20.7022 3.4088 20.488C3.55838 20.2737 3.55848 20.2738 3.55856 20.2738C3.55857 20.2738 3.55864 20.2739 3.55866 20.2739C3.55871 20.2739 3.5587 20.2739 3.55865 20.2739C3.55854 20.2738 3.55823 20.2736 3.55773 20.2733C3.55673 20.2725 3.55496 20.2713 3.55245 20.2695C3.54744 20.2658 3.53949 20.26 3.52888 20.2521C3.50767 20.2361 3.4759 20.2116 3.43589 20.179C3.35576 20.1136 3.24307 20.0159 3.11603 19.8888C2.86077 19.6336 2.55386 19.2662 2.33374 18.8113C2.1146 18.3584 1.9832 17.8229 2.06909 17.2216C2.15495 16.6206 2.46135 15.9296 3.15908 15.1712L2.77447 14.8174ZM5.29852 14.8726C5.09252 14.6667 4.71367 14.4793 4.2785 14.4211C3.83356 14.3617 3.3072 14.4341 2.81608 14.7808L3.11747 15.2078C3.48513 14.9482 3.87439 14.8944 4.2093 14.9391C4.55399 14.9852 4.81923 15.1325 4.92897 15.2422L5.29852 14.8726ZM5.23537 17.2629C5.43235 17.0659 5.66919 16.7175 5.74938 16.2931C5.8324 15.8537 5.74345 15.347 5.30438 14.8787L4.92311 15.2361C5.24179 15.5761 5.28965 15.9113 5.23585 16.196C5.17923 16.4957 5.00562 16.7535 4.86582 16.8933L5.23537 17.2629ZM5.21433 17.7062C5.18988 17.6634 5.1573 17.5778 5.15385 17.4866C5.15065 17.4018 5.17202 17.3262 5.23537 17.2629L4.86582 16.8933C4.67659 17.0826 4.62428 17.3122 4.63161 17.5063C4.63869 17.694 4.70083 17.8609 4.76057 17.9655L5.21433 17.7062ZM5.75037 19.3943C5.80382 19.0736 5.74639 18.3384 5.18819 17.6686L4.78671 18.0031C5.23884 18.5457 5.26561 19.1239 5.23486 19.3084L5.75037 19.3943ZM4.08967 20.8752C4.33783 20.8883 4.7047 20.8271 5.03619 20.6059C5.3775 20.3781 5.66521 19.9909 5.7513 19.3883L5.23394 19.3144C5.16847 19.7726 4.96154 20.0274 4.74611 20.1712C4.52087 20.3215 4.2689 20.3613 4.11714 20.3533L4.08967 20.8752ZM3.29194 20.7217C3.41679 20.7841 3.71441 20.8756 4.1034 20.8756V20.353C3.78516 20.353 3.56919 20.276 3.52566 20.2543L3.29194 20.7217ZM24.2383 19.1619C24.2383 19.8895 23.6485 20.4793 22.9209 20.4793V21.0019C23.9371 21.0019 24.7609 20.1781 24.7609 19.1619H24.2383ZM22.9209 17.8446C23.6485 17.8446 24.2383 18.4344 24.2383 19.1619H24.7609C24.7609 18.1457 23.9371 17.322 22.9209 17.322V17.8446ZM21.6036 19.1619C21.6036 18.4344 22.1934 17.8446 22.9209 17.8446V17.322C21.9048 17.322 21.081 18.1457 21.081 19.1619H21.6036ZM22.9209 20.4793C22.1934 20.4793 21.6036 19.8895 21.6036 19.1619H21.081C21.081 20.1781 21.9048 21.0019 22.9209 21.0019V20.4793ZM7.694 27.8761C7.694 28.0835 7.54804 28.2574 7.35304 28.2996L7.46357 28.8104C7.89401 28.7172 8.21662 28.3346 8.21662 27.8761H7.694ZM7.26071 27.4428C7.50001 27.4428 7.694 27.6368 7.694 27.8761H8.21662C8.21662 27.3481 7.78865 26.9202 7.26071 26.9202V27.4428ZM6.88083 27.6674C6.95495 27.5329 7.09749 27.4428 7.26071 27.4428V26.9202C6.8995 26.9202 6.58548 27.1206 6.42314 27.4151L6.88083 27.6674ZM7.62051 28.4025C7.37053 28.0546 7.11639 27.7141 6.85858 27.3812L6.4454 27.7013C6.69937 28.0292 6.94976 28.3646 7.1961 28.7075L7.62051 28.4025ZM13.6297 8.3008C13.6297 8.60985 13.3792 8.86038 13.0701 8.86038V9.383C13.6678 9.383 14.1524 8.89848 14.1524 8.3008H13.6297ZM13.0701 7.74121C13.3792 7.74121 13.6297 7.99174 13.6297 8.3008H14.1524C14.1524 7.70311 13.6678 7.21859 13.0701 7.21859V7.74121ZM12.5106 8.3008C12.5106 7.99174 12.7611 7.74121 13.0701 7.74121V7.21859C12.4725 7.21859 11.9879 7.70311 11.9879 8.3008H12.5106ZM13.0701 8.86038C12.7611 8.86038 12.5106 8.60985 12.5106 8.3008H11.9879C11.9879 8.89848 12.4725 9.383 13.0701 9.383V8.86038ZM22.0477 32.2255C21.8732 33.7183 20.7636 34.629 20.2444 34.8896L20.4788 35.3567C21.1001 35.0449 22.3655 34.0074 22.5668 32.2862L22.0477 32.2255ZM22.0555 31.8472L22.046 32.2498L22.5685 32.262L22.5779 31.8594L22.0555 31.8472ZM22.0509 31.8208C22.0517 31.832 22.054 31.8767 22.0619 31.9113L22.5715 31.7952C22.5725 31.7996 22.5731 31.8031 22.5735 31.8053C22.5739 31.8075 22.5741 31.8091 22.5742 31.8098C22.5744 31.8111 22.5743 31.811 22.5741 31.8088C22.5739 31.8066 22.5737 31.8035 22.5733 31.7991C22.573 31.7947 22.5726 31.7898 22.5722 31.7837L22.0509 31.8208ZM21.9963 31.5608C22.0364 31.6449 22.0453 31.7416 22.0509 31.8209L22.5722 31.7837C22.5668 31.7073 22.5554 31.5192 22.4682 31.3361L21.9963 31.5608ZM21.7414 31.1889C21.7722 31.2208 21.829 31.2974 21.8889 31.3874C21.9169 31.4295 21.9428 31.4702 21.963 31.5033C21.9731 31.5199 21.9814 31.534 21.9876 31.5449C21.9945 31.5571 21.9968 31.5617 21.9963 31.5608L22.4682 31.3361C22.4443 31.2858 22.3832 31.1868 22.3239 31.0977C22.2643 31.0083 22.1847 30.8957 22.1176 30.8262L21.7414 31.1889ZM21.7364 31.185L21.753 31.2002L22.1061 30.8149L22.0895 30.7997L21.7364 31.185ZM21.7119 31.1623L21.7353 31.184L22.0905 30.8007L22.067 30.7789L21.7119 31.1623ZM21.7047 31.1553L21.7047 31.1554L22.0742 30.7858L22.0742 30.7858L21.7047 31.1553ZM21.4086 30.9197C21.4987 30.9669 21.6144 31.0718 21.7117 31.1621L22.0672 30.7791C21.9853 30.703 21.8158 30.5431 21.6513 30.4569L21.4086 30.9197ZM21.0574 30.8147C21.0793 30.8152 21.1387 30.827 21.226 30.8547C21.3052 30.8798 21.3829 30.9098 21.4281 30.9289L21.6318 30.4477C21.5738 30.4231 21.4807 30.3871 21.3838 30.3564C21.295 30.3283 21.1729 30.2946 21.0696 30.2922L21.0574 30.8147ZM20.588 30.8037L21.0574 30.8147L21.0696 30.2922L20.6003 30.2812L20.588 30.8037ZM20.3232 30.8782C20.3678 30.8502 20.4224 30.8303 20.477 30.8179C20.5322 30.8054 20.575 30.8034 20.588 30.8037L20.6003 30.2812C20.4937 30.2787 20.2544 30.3046 20.0457 30.4354L20.3232 30.8782ZM19.6857 31.4902C19.729 31.3939 19.8322 31.2718 19.969 31.1484C20.1006 31.0297 20.2395 30.9307 20.3232 30.8782L20.0457 30.4354C19.9388 30.5024 19.7752 30.6194 19.6189 30.7604C19.4678 30.8967 19.2978 31.0781 19.2089 31.2762L19.6857 31.4902ZM19.6038 31.8517C19.6045 31.821 19.6157 31.7554 19.6371 31.6692C19.6569 31.589 19.6805 31.5107 19.6956 31.4648L19.1991 31.3016C19.1805 31.3582 19.1531 31.4491 19.1297 31.5436C19.1079 31.6319 19.0835 31.7463 19.0813 31.8395L19.6038 31.8517ZM19.4697 32.3692C19.5742 32.1738 19.6016 31.9479 19.6038 31.8517L19.0813 31.8395C19.0809 31.8577 19.077 31.9045 19.0644 31.9623C19.0518 32.0202 19.0331 32.0773 19.0089 32.1227L19.4697 32.3692ZM18.8191 32.8074C19.0109 32.8119 19.1623 32.7175 19.2592 32.6325C19.3578 32.546 19.4298 32.4438 19.4697 32.3692L19.0089 32.1227C18.9941 32.1502 18.9593 32.2004 18.9145 32.2397C18.8681 32.2804 18.8398 32.2851 18.8313 32.2849L18.8191 32.8074ZM17.8687 33.1124C17.9911 32.9968 18.1684 32.9166 18.3582 32.8671C18.5461 32.818 18.7225 32.8051 18.8191 32.8074L18.8313 32.2849C18.688 32.2816 18.463 32.2996 18.2261 32.3614C17.9912 32.4228 17.7205 32.5335 17.5099 32.7324L17.8687 33.1124ZM17.4837 33.7319C17.5433 33.537 17.6211 33.3937 17.6901 33.2959C17.7247 33.2469 17.7568 33.2098 17.7826 33.1838C17.7955 33.1708 17.8064 33.161 17.8147 33.154C17.8189 33.1506 17.8222 33.148 17.8246 33.1462C17.8271 33.1444 17.8282 33.1437 17.8281 33.1438L17.5505 32.701C17.3902 32.8014 17.1335 33.0905 16.9839 33.5789L17.4837 33.7319ZM17.6178 34.6376C17.5397 34.5109 17.496 34.3338 17.4798 34.1456C17.4639 33.9604 17.4767 33.7901 17.4918 33.6971L16.9759 33.6137C16.9543 33.7471 16.9393 33.9605 16.9591 34.1903C16.9786 34.4171 17.034 34.6865 17.173 34.9119L17.6178 34.6376ZM18.1032 35.137C17.8604 34.9534 17.6705 34.7154 17.6123 34.6289L17.1786 34.9206C17.2616 35.044 17.4894 35.3281 17.788 35.5539L18.1032 35.137ZM19.038 35.2672C18.5712 35.3221 18.1851 35.1798 18.073 35.1173L17.8183 35.5736C18.0152 35.6836 18.5109 35.8554 19.099 35.7862L19.038 35.2672ZM20.2294 34.8978C19.8688 35.1093 19.2857 35.2338 19.0337 35.2677L19.1033 35.7857C19.3748 35.7492 20.0417 35.6138 20.4938 35.3485L20.2294 34.8978ZM10.0391 21.372C10.224 21.5567 10.224 21.5567 10.2241 21.5567C10.2241 21.5566 10.2241 21.5566 10.2242 21.5565C10.2244 21.5564 10.2246 21.5561 10.2249 21.5558C10.2255 21.5552 10.2264 21.5543 10.2276 21.5532C10.2299 21.5508 10.2334 21.5473 10.2381 21.5426C10.2474 21.5333 10.2612 21.5195 10.2792 21.5014C10.3153 21.4653 10.3683 21.4123 10.436 21.3446C10.5713 21.2091 10.7652 21.015 10.9998 20.7803C11.469 20.3107 12.1006 19.6786 12.7506 19.0284C14.051 17.7274 15.4238 16.3546 15.7169 16.0638L15.3488 15.6928C15.0547 15.9846 13.6807 17.3586 12.381 18.6589C11.731 19.3092 11.0993 19.9413 10.6301 20.4109C10.3955 20.6456 10.2016 20.8397 10.0663 20.9752C9.9986 21.0429 9.94561 21.0959 9.90953 21.1321C9.89149 21.1501 9.87767 21.1639 9.86837 21.1732C9.86372 21.1779 9.8602 21.1814 9.85784 21.1838C9.85665 21.185 9.85577 21.1859 9.85517 21.1865C9.85487 21.1868 9.85465 21.187 9.8545 21.1871C9.85443 21.1872 9.85437 21.1873 9.85433 21.1873C9.85429 21.1873 9.85428 21.1874 10.0391 21.372ZM15.7169 16.0638C15.9036 15.8786 16.0484 15.6035 16.1528 15.3008C16.2589 14.9934 16.3306 14.6362 16.3581 14.2672C16.4124 13.5389 16.2969 12.7128 15.8706 12.1255L15.4477 12.4325C15.7717 12.8788 15.8866 13.5611 15.8369 14.2284C15.8125 14.5573 15.7487 14.8697 15.6588 15.1303C15.5673 15.3956 15.4557 15.5868 15.3488 15.6928L15.7169 16.0638ZM15.8718 12.1271L15.556 11.6851L15.1308 11.9889L15.4465 12.4309L15.8718 12.1271ZM10.1862 17.2315L15.4563 11.9343L15.0858 11.5657L9.81566 16.8629L10.1862 17.2315ZM19.494 15.9513L14.2238 21.2485L14.5943 21.6171L19.8645 16.3199L19.494 15.9513ZM14.2238 21.2485C13.1146 22.3635 11.3115 22.3681 10.1965 21.2589L9.8279 21.6294C11.1475 22.9422 13.2815 22.9367 14.5943 21.6171L14.2238 21.2485ZM19.4836 11.9239C20.5986 13.0332 20.6032 14.8363 19.494 15.9513L19.8645 16.3199C21.1773 15.0003 21.1718 12.8663 19.8522 11.5534L19.4836 11.9239ZM15.4563 11.9343C16.5655 10.8193 18.3686 10.8147 19.4836 11.9239L19.8522 11.5534C18.5326 10.2406 16.3986 10.2461 15.0858 11.5657L15.4563 11.9343ZM9.81566 16.8629C8.50283 18.1825 8.50831 20.3165 9.8279 21.6294L10.1965 21.2589C9.08152 20.1496 9.07689 18.3465 10.1862 17.2315L9.81566 16.8629ZM15.8698 12.1244L15.4817 11.5954L15.0603 11.9045L15.4484 12.4336L15.8698 12.1244ZM23.3508 5.119C23.9674 5.7437 24.4489 6.2311 24.6107 6.39372L24.9812 6.02517C24.8204 5.86344 24.3397 5.37695 23.7227 4.75187L23.3508 5.119ZM24.6107 6.39372C24.7208 6.50446 24.8352 6.70344 24.9288 6.9784C25.0208 7.24862 25.086 7.57242 25.111 7.9131C25.1618 8.6041 25.0444 9.31209 24.7123 9.77578L25.1371 10.0801C25.5699 9.476 25.6874 8.62564 25.6322 7.87479C25.6043 7.49454 25.5313 7.12654 25.4235 6.80997C25.3173 6.49813 25.1704 6.21534 24.9812 6.02517L24.6107 6.39372ZM24.7111 9.77741L24.3892 10.2341L24.8164 10.5352L25.1383 10.0785L24.7111 9.77741ZM9.60103 5.35424C9.38649 5.78651 9.15715 6.00679 9.07329 6.0627L9.36319 6.49754C9.54429 6.37681 9.82697 6.07456 10.0692 5.58658L9.60103 5.35424ZM9.03346 6.09535C8.74813 6.38067 8.34728 6.56925 7.94428 6.68582C7.54304 6.80187 7.16341 6.83971 6.94498 6.83971V7.36233C7.21067 7.36233 7.6393 7.31807 8.08949 7.18786C8.53791 7.05816 9.03162 6.83628 9.40301 6.46489L9.03346 6.09535ZM6.94498 6.83971C6.65025 6.83971 6.41053 6.99215 6.24455 7.14641C6.07678 7.30233 5.95481 7.48671 5.89036 7.61562L6.3578 7.84934C6.39859 7.76777 6.485 7.63642 6.60033 7.52923C6.71746 7.42038 6.83556 7.36233 6.94498 7.36233V6.83971ZM5.89036 7.61562C5.71437 7.96759 5.67333 8.38238 5.67333 8.55338H6.19595C6.19595 8.4297 6.23068 8.10358 6.3578 7.84934L5.89036 7.61562ZM5.67333 8.55338C5.67333 8.64873 5.64766 8.80861 5.60843 8.98647C5.57053 9.15826 5.52488 9.32561 5.49491 9.42548L5.99549 9.57566C6.02868 9.46505 6.07774 9.28509 6.11878 9.09905C6.15847 8.91909 6.19595 8.71062 6.19595 8.55338H5.67333ZM5.50399 9.40007C5.39904 9.65194 5.16296 9.93722 4.88585 10.202C4.61374 10.462 4.32591 10.68 4.14789 10.7987L4.43779 11.2335C4.63865 11.0996 4.95071 10.8629 5.24691 10.5799C5.53812 10.3016 5.83878 9.9554 5.98641 9.60107L5.50399 9.40007ZM4.14789 10.7987C3.9003 10.9637 3.58523 11.0074 3.47194 11.0074V11.53C3.65333 11.53 4.07918 11.4726 4.43779 11.2335L4.14789 10.7987ZM3.47194 11.0074H2.52475V11.53H3.47194V11.0074ZM2.52475 11.0074C2.43958 11.0074 2.28729 10.9757 2.1091 10.9232C1.93918 10.8733 1.77335 10.813 1.67461 10.7735L1.48051 11.2587C1.59226 11.3034 1.77373 11.3694 1.96164 11.4246C2.14127 11.4775 2.35734 11.53 2.52475 11.53V11.0074ZM1.69442 10.7824C1.47551 10.6729 1.21303 10.4418 1.02067 10.2697L0.672207 10.6592C0.849971 10.8183 1.1667 11.1028 1.4607 11.2498L1.69442 10.7824ZM0.403503 8.58736H2.94042V8.06474H0.403503V8.58736ZM3.199 8.36372C3.23153 8.14036 3.26739 7.93024 3.3069 7.7324L2.7944 7.63006C2.75288 7.83795 2.71552 8.05716 2.68184 8.28839L3.199 8.36372ZM25.1676 31.2183C25.3876 30.5565 25.7027 30.2001 25.8401 30.0911L25.5152 29.6817C25.2855 29.864 24.9182 30.3119 24.6717 31.0534L25.1676 31.2183ZM9.0046 30.7596C9.11269 30.5927 9.20998 30.454 9.2838 30.3555L8.86566 30.042C8.78365 30.1514 8.67953 30.3001 8.56592 30.4755L9.0046 30.7596ZM9.28114 30.359C9.88876 29.5763 10.6764 29.204 10.9674 29.1208L10.8237 28.6183C10.4387 28.7284 9.5517 29.1583 8.86832 30.0385L9.28114 30.359ZM10.9319 29.1283C11.5657 29.0392 12.1987 29.109 12.4249 29.1529L12.5245 28.6399C12.2549 28.5876 11.5624 28.512 10.8592 28.6108L10.9319 29.1283ZM12.4148 29.1508C12.7609 29.2322 13.1115 29.4483 13.4175 29.703C13.7212 29.9557 13.9608 30.2295 14.0847 30.3983L14.506 30.089C14.3581 29.8876 14.0896 29.5824 13.7519 29.3013C13.4165 29.0222 12.9927 28.7498 12.5345 28.642L12.4148 29.1508ZM14.0658 30.3685C14.4864 31.1422 14.4825 31.7191 14.4513 31.8626L14.962 31.9735C15.0258 31.6798 14.9903 30.9749 14.525 30.1189L14.0658 30.3685ZM14.4454 31.9137C14.4389 32.3091 14.2851 32.7152 14.0804 33.0724C13.8766 33.428 13.6347 33.7136 13.4808 33.8624L13.8441 34.2381C14.032 34.0564 14.3047 33.7321 14.5338 33.3323C14.762 32.934 14.9594 32.4394 14.9679 31.9223L14.4454 31.9137ZM13.4808 33.8624C13.2715 34.0649 13.2062 34.3376 13.1943 34.5605C13.1824 34.7859 13.2223 35 13.265 35.1355L13.7635 34.9784C13.7367 34.8934 13.7081 34.7421 13.7162 34.5882C13.7245 34.4319 13.7681 34.3116 13.8441 34.2381L13.4808 33.8624ZM13.265 35.1355C13.3815 35.5052 13.6364 35.8268 13.7535 35.9479L14.1292 35.5846C14.045 35.4975 13.8472 35.2439 13.7635 34.9784L13.265 35.1355ZM13.7535 35.9479C13.8183 36.0149 13.9092 36.145 14.003 36.2975C14.0936 36.4446 14.1757 36.5939 14.2227 36.6848L14.6869 36.4447C14.6347 36.3438 14.5463 36.1831 14.4481 36.0235C14.3532 35.8693 14.237 35.696 14.1292 35.5846L13.7535 35.9479ZM14.2116 36.6603C14.3034 36.8942 14.3342 37.2296 14.3248 37.5849L14.8472 37.5987C14.8572 37.2222 14.8287 36.8022 14.698 36.4693L14.2116 36.6603ZM10.7896 33.8688C11.0717 32.7523 12.0097 31.5033 13.8855 29.7857L13.5326 29.4003C11.6505 31.1235 10.6059 32.4625 10.2829 33.7407L10.7896 33.8688Z" fill="white"/>
</svg>
